<svg width="27" height="71" viewBox="0 0 27 71" fill="none" xmlns="http://www.w3.org/2000/svg">
<g clip-path="url(#clip0_343_2891)">
<rect width="70.9736" height="26.9322" transform="matrix(-0.000952571 -1 1 -0.000985363 0.067627 71)" fill="#EFEEEA"/>
<path d="M16.9809 61.5096L16.9809 60.8376L12.9129 60.8377L12.9129 57.5257L12.3609 57.5257L12.3609 60.8377L8.95286 60.8377L8.95293 56.6257L8.40093 56.6257L8.40085 61.5097L16.9809 61.5096ZM17.077 53.063C17.077 51.719 16.429 50.723 15.229 50.459L15.229 51.095C16.105 51.311 16.537 52.019 16.537 53.063C16.537 54.551 15.577 55.355 13.897 55.3791L13.897 50.4111L13.669 50.4111C11.593 50.4111 10.609 51.6471 10.609 53.1591C10.609 54.8391 11.9169 56.0391 13.8129 56.0391L13.9089 56.0391C15.7929 56.039 17.077 54.875 17.077 53.063ZM13.381 55.3551C12.013 55.2351 11.149 54.3711 11.149 53.1591C11.149 51.9351 11.857 51.1311 13.381 51.0711L13.381 55.3551ZM17.0771 46.4185C17.0771 45.0745 16.4291 44.0785 15.2291 43.8145L15.2291 44.4505C16.1051 44.6665 16.5371 45.3745 16.5371 46.4185C16.5371 47.9065 15.5771 48.7105 13.8971 48.7345L13.8971 43.7665L13.6691 43.7665C11.5931 43.7666 10.6091 45.0026 10.6091 46.5146C10.6091 48.1946 11.917 49.3946 13.813 49.3945L13.909 49.3945C15.793 49.3945 17.0771 48.2305 17.0771 46.4185ZM13.3811 48.7105C12.0131 48.5906 11.1491 47.7266 11.1491 46.5146C11.1491 45.2906 11.8571 44.4866 13.3811 44.4265L13.3811 48.7105ZM17.0772 39.9299C17.0772 38.7539 16.2852 37.878 15.5292 37.542L16.9812 37.5419L16.9813 36.9059L7.70525 36.9061L7.70524 37.5421L12.0972 37.542C11.3172 37.902 10.6092 38.5981 10.6092 39.8341C10.6092 41.4901 11.9052 42.75 13.8372 42.75L13.9332 42.75C15.9252 42.75 17.0772 41.5259 17.0772 39.9299ZM16.5372 39.87C16.5372 41.118 15.6252 42.09 13.9092 42.09L13.8132 42.09C12.1212 42.09 11.1492 41.118 11.1492 39.774C11.1492 38.466 12.0612 37.53 13.7892 37.53L13.8852 37.53C15.6132 37.53 16.5372 38.598 16.5372 39.87ZM17.0773 31.9103C17.0774 30.2903 15.8414 29.0903 13.8734 29.0903L13.7774 29.0903C11.8214 29.0904 10.6094 30.3264 10.6093 31.9104C10.6093 33.0144 11.3533 33.9384 12.1693 34.2984L7.70529 34.2984L7.70528 34.9344L16.9813 34.9343L16.9813 34.2983L15.5533 34.2983C16.3213 33.9623 17.0773 33.1463 17.0773 31.9103ZM16.5373 31.9583C16.5373 33.2663 15.6133 34.3103 13.8973 34.3103L13.8013 34.3103C12.0733 34.3104 11.1493 33.1944 11.1493 31.9704C11.1494 30.7704 12.0734 29.7504 13.8014 29.7503L13.8974 29.7503C15.5774 29.7503 16.5374 30.6383 16.5373 31.9583ZM17.0774 25.9186C17.0774 24.8626 16.6335 24.1906 16.0215 23.7947L16.9815 23.7946L16.9815 23.1586L12.8295 23.1587C11.2335 23.1587 10.6095 24.0467 10.6094 25.3547C10.6094 26.5427 11.1614 27.6227 12.4814 27.7667L12.4814 27.1427C11.5574 26.9987 11.1494 26.3267 11.1494 25.3787C11.1495 24.2747 11.6535 23.7947 12.8295 23.7947L13.3935 23.7947L13.3934 25.1027C13.3934 26.6507 13.8374 28.0427 15.2894 28.0427C16.4774 28.0426 17.0774 27.1546 17.0774 25.9186ZM16.5614 25.8706C16.5614 26.9026 16.0934 27.4067 15.2894 27.4067C14.1614 27.4067 13.8854 26.3867 13.8854 25.0787L13.8855 23.7947L14.9535 23.7947C15.8895 23.7947 16.5615 24.7186 16.5614 25.8706ZM17.0775 18.7031C17.0776 17.2751 16.1536 16.1951 14.8096 16.0271L14.8096 16.6151C15.9376 16.7711 16.5376 17.6591 16.5375 18.7031C16.5375 20.0231 15.5655 21.0431 13.9095 21.0431L13.8135 21.0431C12.1575 21.0432 11.1495 20.0112 11.1495 18.7032C11.1496 17.7192 11.6416 16.8672 12.6976 16.7111L12.6976 16.0871C11.2816 16.2552 10.6096 17.4312 10.6095 18.7032C10.6095 20.3592 11.8935 21.7032 13.8135 21.7031L13.9095 21.7031C15.8175 21.7031 17.0775 20.3951 17.0775 18.7031ZM16.9816 14.5671L16.9816 13.9311L13.6576 13.9312L16.9817 10.7031L16.9817 9.9111L13.6336 13.1752L10.7057 10.1152L10.7057 10.8712L13.6576 13.9312L7.70563 13.9313L7.70562 14.5673L16.9816 14.5671Z" fill="black"/>
</g>
<defs>
<clipPath id="clip0_343_2891">
<rect width="70.9736" height="26.9322" fill="white" transform="matrix(-0.000952571 -1 1 -0.000985363 0.067627 71)"/>
</clipPath>
</defs>
</svg>
