<svg width="22" height="17" viewBox="0 0 22 17" fill="none" xmlns="http://www.w3.org/2000/svg">
<path d="M11 0C4.9251 0 0 3.80263 0 8.49301C0 12.0929 2.89712 15.1686 6.9893 16.4058C6.88971 15.7348 6.80823 14.7002 7.02551 13.9663C7.22469 13.3022 8.31111 9.74424 8.31111 9.74424C8.31111 9.74424 7.98519 9.23396 7.98519 8.48602C7.98519 7.30469 8.87243 6.42393 9.97696 6.42393C10.9185 6.42393 11.3712 6.96916 11.3712 7.61924C11.3712 8.34622 10.7737 9.43668 10.4568 10.4502C10.1942 11.2961 11.0091 11.9881 12.0864 11.9881C14.042 11.9881 15.5449 10.3943 15.5449 8.10156C15.5449 6.06743 13.6527 4.64844 10.9457 4.64844C7.81317 4.64844 5.97531 6.45888 5.97531 8.33224C5.97531 9.05921 6.33745 9.8421 6.79012 10.2685C6.88066 10.3524 6.88971 10.4293 6.86255 10.5132C6.78107 10.7788 6.59095 11.359 6.55473 11.4778C6.50947 11.6316 6.39177 11.6665 6.18354 11.5896C4.80741 11.0933 3.94733 9.54852 3.94733 8.29729C3.94733 5.62007 6.4642 3.15954 11.2173 3.15954C15.0288 3.15954 17.9984 5.25658 17.9984 8.06661C17.9984 10.9955 15.6082 13.3512 12.2947 13.3512C11.1811 13.3512 10.1309 12.9038 9.77778 12.3725C9.77778 12.3725 9.22552 13.9942 9.08971 14.3927C8.84527 15.1336 8.17531 16.0563 7.72263 16.6225C8.75473 16.8672 9.84115 17 10.9819 17C17.0568 17 21.9819 13.1974 21.9819 8.50699C22 3.80263 17.0749 0 11 0Z" fill="black"/>
</svg>
