<svg width="22" height="17" viewBox="0 0 22 17" fill="none" xmlns="http://www.w3.org/2000/svg">
<path d="M22 8.49999C22 3.80557 17.0751 -9.53674e-06 11 -9.53674e-06C4.92486 -9.53674e-06 0 3.80557 0 8.49999C0 12.7426 4.02254 16.2591 9.28125 16.8967V10.957H6.48828V8.49999H9.28125V6.62733C9.28125 4.49702 10.9235 3.3203 13.4361 3.3203C14.6396 3.3203 15.8984 3.48632 15.8984 3.48632V5.57812H14.5114C13.1449 5.57812 12.7188 6.23333 12.7188 6.90553V8.49999H15.7695L15.2818 10.957H12.7188V16.8967C17.9775 16.2591 22 12.7426 22 8.49999Z" fill="black"/>
</svg>
