<svg width="22" height="22" viewBox="0 0 22 22" fill="none" xmlns="http://www.w3.org/2000/svg">
<path d="M18.745 18.7455H15.4853V13.6405C15.4853 12.4231 15.4636 10.856 13.7899 10.856C12.0922 10.856 11.8324 12.1824 11.8324 13.5518V18.7451H8.57269V8.24715H11.702V9.68181H11.7458C12.059 9.14633 12.5115 8.70582 13.0553 8.4072C13.599 8.10857 14.2135 7.96302 14.8334 7.98603C18.1373 7.98603 18.7464 10.1592 18.7464 12.9865L18.745 18.7455ZM4.89466 6.81215C4.52052 6.81222 4.15476 6.70134 3.84365 6.49353C3.53253 6.28572 3.29003 5.99032 3.1468 5.64468C3.00356 5.29904 2.96602 4.91868 3.03895 4.55171C3.11187 4.18474 3.29198 3.84764 3.55648 3.58303C3.82099 3.31842 4.15802 3.13819 4.52495 3.06514C4.89188 2.99208 5.27223 3.02947 5.61791 3.17259C5.96359 3.31571 6.25907 3.55812 6.46698 3.86917C6.67489 4.18023 6.78591 4.54595 6.78597 4.9201C6.78602 5.16852 6.73713 5.41452 6.6421 5.64405C6.54708 5.87358 6.40779 6.08215 6.23217 6.25784C6.05654 6.43353 5.84802 6.57291 5.61853 6.66802C5.38904 6.76313 5.14307 6.81211 4.89466 6.81215ZM6.52451 18.7455H3.26141V8.24715H6.52451V18.7455ZM20.3701 0.0014989H1.62341C1.19791 -0.00330301 0.787891 0.161025 0.483487 0.458372C0.179082 0.755719 0.00519297 1.16176 0 1.58727V20.4124C0.00501524 20.8381 0.178802 21.2444 0.483196 21.5421C0.787591 21.8398 1.1977 22.0044 1.62341 21.9999H20.3701C20.7967 22.0052 21.208 21.841 21.5135 21.5434C21.8191 21.2457 21.9941 20.839 22 20.4124V1.58591C21.9939 1.15956 21.8188 0.753056 21.5132 0.455715C21.2076 0.158375 20.7965 -0.00548298 20.3701 0.000140087" fill="black"/>
</svg>
