<svg width="40" height="40" viewBox="0 0 40 40" fill="none" xmlns="http://www.w3.org/2000/svg">
<path d="M20.0001 0C8.96006 0 6.10352e-05 8.96 6.10352e-05 20C6.10352e-05 31.04 8.96006 40 20.0001 40C31.0401 40 40.0001 31.04 40.0001 20C40.0001 8.96 31.0401 0 20.0001 0ZM22.0001 34H18.0001V30H22.0001V34ZM26.1401 18.5L24.3401 20.34C22.9001 21.8 22.0001 23 22.0001 26H18.0001V25C18.0001 22.8 18.9001 20.8 20.3401 19.34L22.8201 16.82C23.5601 16.1 24.0001 15.1 24.0001 14C24.0001 11.8 22.2001 10 20.0001 10C17.8001 10 16.0001 11.8 16.0001 14H12.0001C12.0001 9.58 15.5801 6 20.0001 6C24.4201 6 28.0001 9.58 28.0001 14C28.0001 15.76 27.2801 17.36 26.1401 18.5Z" fill="#323232"/>
</svg>
