<svg width="22" height="17" viewBox="0 0 22 17" fill="none" xmlns="http://www.w3.org/2000/svg">
<path d="M6.91874 17C15.221 17 19.7612 10.4603 19.7612 4.78928C19.7612 4.60353 19.7573 4.41862 19.7485 4.23455C20.6298 3.62877 21.3958 2.87281 22 2.01225C21.1913 2.35405 20.3209 2.58414 19.4079 2.68789C20.3398 2.15658 21.0553 1.31611 21.3928 0.314183C20.5207 0.80575 19.5549 1.16302 18.5266 1.35591C17.703 0.521743 16.5303 0 15.2319 0C12.7393 0 10.718 1.92195 10.718 4.29102C10.718 4.62779 10.7576 4.95536 10.835 5.26957C7.08364 5.0901 3.75719 3.38237 1.53094 0.785666C1.1433 1.41989 0.919782 2.1566 0.919782 2.94269C0.919782 4.43162 1.71664 5.74605 2.9284 6.51501C2.18787 6.49325 1.49222 6.29997 0.884199 5.97825C0.883535 5.99626 0.883533 6.01382 0.883533 6.03306C0.883533 8.11147 2.43939 9.84677 4.5047 10.24C4.12542 10.3383 3.72637 10.391 3.3145 10.391C3.0241 10.391 2.74118 10.3638 2.46618 10.3136C3.04082 12.0188 4.70712 13.2597 6.68266 13.2944C5.13781 14.4457 3.19173 15.1314 1.07666 15.1314C0.712779 15.1314 0.353302 15.1117 0 15.072C1.99762 16.2894 4.3696 16.9997 6.91898 16.9997" fill="black"/>
</svg>
